<?xml version="1.0" encoding="UTF-8" standalone="no"?>
<!-- Created with Inkscape (http://www.inkscape.org/) -->

<svg
   width="16"
   height="16"
   viewBox="0 0 4.2333332 4.2333333"
   version="1.1"
   id="svg1"
   xml:space="preserve"
   inkscape:version="1.4.1 (93de688d07, 2025-03-30)"
   sodipodi:docname="küaplan-icon-draft3.svg"
   inkscape:export-filename="küaplan-icon-draft3.png"
   inkscape:export-xdpi="96"
   inkscape:export-ydpi="96"
   xmlns:inkscape="http://www.inkscape.org/namespaces/inkscape"
   xmlns:sodipodi="http://sodipodi.sourceforge.net/DTD/sodipodi-0.dtd"
   xmlns="http://www.w3.org/2000/svg"
   xmlns:svg="http://www.w3.org/2000/svg"><sodipodi:namedview
     id="namedview1"
     pagecolor="#ffffff"
     bordercolor="#111111"
     borderopacity="1"
     inkscape:showpageshadow="0"
     inkscape:pageopacity="0"
     inkscape:pagecheckerboard="true"
     inkscape:deskcolor="#d1d1d1"
     inkscape:document-units="mm"
     showgrid="true"
     inkscape:zoom="40.96"
     inkscape:cx="5.9814454"
     inkscape:cy="8.9965821"
     inkscape:window-width="1920"
     inkscape:window-height="1140"
     inkscape:window-x="0"
     inkscape:window-y="0"
     inkscape:window-maximized="1"
     inkscape:current-layer="layer1"
     showborder="true"><inkscape:grid
       id="grid1"
       units="px"
       originx="0"
       originy="0"
       spacingx="0.13229166"
       spacingy="0.13229166"
       empcolor="#0099e5"
       empopacity="0.30196078"
       color="#0099e5"
       opacity="0.14901961"
       empspacing="2"
       enabled="true"
       visible="true" /></sodipodi:namedview><defs
     id="defs1"><filter
       id="filter5099"
       x="-0.046949923"
       y="-0.12784517"
       width="1.0938998"
       height="1.2556903"
       color-interpolation-filters="sRGB"><feGaussianBlur
         stdDeviation="225.0075"
         id="feGaussianBlur1" /></filter><filter
       id="filter2"
       x="-0.046949923"
       y="-0.12784517"
       width="1.0938998"
       height="1.2556903"
       color-interpolation-filters="sRGB"><feGaussianBlur
         stdDeviation="225.0075"
         id="feGaussianBlur2" /></filter><filter
       id="filter3"
       x="-0.046949923"
       y="-0.12784517"
       width="1.0938998"
       height="1.2556903"
       color-interpolation-filters="sRGB"><feGaussianBlur
         stdDeviation="225.0075"
         id="feGaussianBlur3" /></filter><filter
       inkscape:collect="always"
       style="color-interpolation-filters:sRGB"
       id="filter46"
       x="-0.039669421"
       y="-0.039669425"
       width="1.0793388"
       height="1.0793388"><feGaussianBlur
         inkscape:collect="always"
         stdDeviation="0.048106058"
         id="feGaussianBlur46" /></filter></defs><g
     inkscape:label="Layer 1"
     inkscape:groupmode="layer"
     id="layer1"><rect
       style="fill:#b3b3b3;stroke:#b3b3b3;stroke-width:0.264583;stroke-opacity:1;-inkscape-stroke:none"
       id="rect17"
       width="8.3616264e-08"
       height="4.4297472e-08"
       x="4.3656254"
       y="3.8364582"
       ry="2.2148736e-08" /><path
       id="path19"
       style="baseline-shift:baseline;display:inline;overflow:visible;vector-effect:none;fill:#b3b3b3;fill-opacity:0.275787;enable-background:accumulate;stop-color:#000000"
       d="m 0.52813312,2.3879679 v 0.6552572 c 0,0.510534 0.41661641,0.9251924 0.92707528,0.9255249 H 3.5718751 C 3.7194389,3.9686539 3.8588473,3.9337974 3.9827027,3.8721151 3.7806421,3.8186493 3.5853357,3.7631281 3.396692,3.7052002 H 1.4562419 c -0.3687362,0 -0.66249191,-0.2932389 -0.66249191,-0.6619751 V 2.5579834 Z" /><rect
       style="fill:#7c7c7c;fill-opacity:0.49867153;stroke:#b3b3b3;stroke-width:0;stroke-dasharray:none;stroke-opacity:1;filter:url(#filter46)"
       id="rect46"
       width="2.9104166"
       height="2.9104164"
       x="1.0583333"
       y="0.52916664"
       ry="0.52916664" /><g
       transform="matrix(0.00353527,0,0,0.00407336,3.6579867,0.29908194)"
       id="g6"><path
         class="fil0"
         transform="matrix(0.09,0,0,0.09,-907.6,-145.5)"
         d="m -863.5,7837 1293,4224 11328,-1150 c -5347,-538 -9359,-1646 -12621,-3074 z"
         color="#000000"
         color-rendering="auto"
         fill="#1a1a1a"
         filter="url(#filter5099)"
         image-rendering="auto"
         opacity="0.659"
         shape-rendering="auto"
         solid-color="#000000"
         style="isolation:auto;mix-blend-mode:normal"
         id="path1" /><path
         class="fil0"
         d="m -985.3,559.8 116.4,380.1 1019,-103.5 C -331.1,787.98 -692.2,688.3 -985.9,559.7 Z"
         fill="#dededd"
         fill-rule="evenodd"
         image-rendering="optimizeQuality"
         shape-rendering="geometricPrecision"
         stroke-width="0.09"
         id="path2" /><path
         class="fil1"
         transform="matrix(0.09,0,0,0.09,-907.6,-145.5)"
         d="m -354.5,7213 649,4273 11459,-577 c -5245,-805 -9074,-2110 -12108,-3696 z"
         color="#000000"
         color-rendering="auto"
         fill="#1a1a1a"
         filter="url(#filter5099)"
         image-rendering="auto"
         opacity="0.659"
         shape-rendering="auto"
         solid-color="#000000"
         style="isolation:auto;mix-blend-mode:normal"
         id="path3" /><path
         class="fil1"
         d="m -939.5,503.6 58.41,384.6 1031,-51.93 c -472,-72.45 -816.6,-189.9 -1090,-332.6 z"
         fill="#aaa9a9"
         fill-rule="evenodd"
         image-rendering="optimizeQuality"
         shape-rendering="geometricPrecision"
         stroke-width="0.09"
         id="path4" /><path
         class="fil2"
         transform="matrix(0.09,0,0,0.09,-907.6,-145.5)"
         d="M 2904,8062 C 2518,7879 2147,7692 1788,7502 L 875,6994 C 663,6870 454,6744 251,6618 v 4288 H 11753 C 8585,10246 5991,9420 3813,8475 Z"
         color="#000000"
         color-rendering="auto"
         fill="#1a1a1a"
         filter="url(#filter5099)"
         image-rendering="auto"
         opacity="0.659"
         shape-rendering="auto"
         solid-color="#000000"
         style="isolation:auto;mix-blend-mode:normal"
         id="path5" /><path
         class="fil2"
         d="m -646.3,580 c -34.74,-16.47 -68.13,-33.3 -100.4,-50.4 l -82.17,-45.72 c -19.08,-11.16 -37.89,-22.5 -56.16,-33.84 v 385.9 h 1035 c -285.1,-59.4 -518.6,-133.7 -714.6,-218.8 z"
         fill="#1f1a17"
         fill-rule="evenodd"
         image-rendering="optimizeQuality"
         shape-rendering="geometricPrecision"
         stroke-width="0.09"
         id="path6-1" /></g><rect
       style="fill:#ffffff;fill-opacity:0.53710938;stroke:#b3b3b3;stroke-width:0;stroke-dasharray:none;stroke-opacity:1"
       id="rect20"
       width="2.9104166"
       height="2.9104164"
       x="1.0583333"
       y="0.52916664"
       ry="0.52916664" /><rect
       style="fill:#85878d;fill-opacity:1;stroke:#b3b3b3;stroke-width:0;stroke-dasharray:none;stroke-opacity:1"
       id="rect21"
       width="0.79374999"
       height="0.52916664"
       x="1.0583333"
       y="1.3229166"
       ry="0" /><rect
       style="fill:#628eff;fill-opacity:1;stroke:#b3b3b3;stroke-width:0;stroke-dasharray:none;stroke-opacity:1"
       id="rect27"
       width="0.79375005"
       height="0.26458332"
       x="2.1166666"
       y="2.3812499"
       ry="0" /><rect
       style="fill:#628eff;fill-opacity:1;stroke:#b3b3b3;stroke-width:0;stroke-dasharray:none;stroke-opacity:1"
       id="rect28"
       width="0.79375005"
       height="0.26458329"
       x="2.1166666"
       y="1.3229166"
       ry="0" /><rect
       style="fill:#628eff;fill-opacity:1;stroke:#b3b3b3;stroke-width:0;stroke-dasharray:none;stroke-opacity:1"
       id="rect29"
       width="0.79375005"
       height="0.39687493"
       x="2.1166666"
       y="1.7197917"
       ry="0" /><rect
       style="fill:#85878d;fill-opacity:1;stroke:#b3b3b3;stroke-width:0;stroke-dasharray:none;stroke-opacity:1"
       id="rect33"
       width="0.79374999"
       height="0.52916664"
       x="3.175"
       y="1.3229166"
       ry="0" /><rect
       style="fill:#628eff;fill-opacity:1;stroke:#b3b3b3;stroke-width:0;stroke-dasharray:none;stroke-opacity:1"
       id="rect34"
       width="0.79374999"
       height="0.39687502"
       x="3.175"
       y="1.9843749"
       ry="0" /><rect
       style="fill:#628eff;fill-opacity:1;stroke:#b3b3b3;stroke-width:0;stroke-dasharray:none;stroke-opacity:1"
       id="rect38"
       width="0.79375005"
       height="0.66145837"
       x="2.1166666"
       y="2.7781248"
       ry="0" /><path
       id="rect41"
       style="fill:#628eff;fill-opacity:1;stroke:#b3b3b3;stroke-width:0;stroke-dasharray:none;stroke-opacity:1"
       d="M 3.175 2.9104167 L 3.175 3.4395833 L 3.4395833 3.4395833 C 3.7327417 3.4395833 3.96875 3.203575 3.96875 2.9104167 L 3.175 2.9104167 z " /><path
       id="rect43"
       style="fill:#0048ff;fill-opacity:1;stroke:#b3b3b3;stroke-width:0;stroke-dasharray:none;stroke-opacity:1"
       d="M 1.5875 0.52916667 C 1.2943417 0.52916667 1.0583333 0.76517502 1.0583333 1.0583333 L 1.0583333 1.190625 L 3.96875 1.190625 L 3.96875 1.0583333 C 3.96875 0.76517502 3.7327417 0.52916667 3.4395833 0.52916667 L 1.5875 0.52916667 z " /><rect
       style="fill:#b3b3b3;fill-opacity:1;stroke:#b3b3b3;stroke-width:0;stroke-dasharray:none;stroke-opacity:1"
       id="rect44"
       width="0.26458335"
       height="0.39687493"
       x="1.5875"
       y="0.39687499"
       ry="0" /><rect
       style="fill:#b3b3b3;fill-opacity:1;stroke:#b3b3b3;stroke-width:0;stroke-dasharray:none;stroke-opacity:1"
       id="rect45"
       width="0.26458335"
       height="0.39687493"
       x="3.175"
       y="0.39687499"
       ry="0" /><rect
       style="fill:#85878d;fill-opacity:1;stroke:#b3b3b3;stroke-width:0;stroke-dasharray:none;stroke-opacity:1"
       id="rect47"
       width="0.79374999"
       height="0.26458317"
       x="3.175"
       y="2.5135417"
       ry="0" /><rect
       style="fill:#85878d;fill-opacity:1;stroke:#b3b3b3;stroke-width:0;stroke-dasharray:none;stroke-opacity:1"
       id="rect48"
       width="0.79374999"
       height="0.66145831"
       x="1.0583333"
       y="2.1166666"
       ry="0" /><path
       id="rect49"
       style="fill:#85878d;fill-opacity:1;stroke:#b3b3b3;stroke-width:0;stroke-dasharray:none;stroke-opacity:1"
       d="M 1.0748698 3.0427083 C 1.1333247 3.2714391 1.3400546 3.4395833 1.5875 3.4395833 L 1.8520833 3.4395833 L 1.8520833 3.0427083 L 1.0748698 3.0427083 z " /></g></svg>
