<?xml version="1.0" encoding="UTF-8" standalone="no"?>
<!-- Created with Inkscape (http://www.inkscape.org/) -->

<svg
   width="16"
   height="16"
   viewBox="0 0 4.2333332 4.2333333"
   version="1.1"
   id="svg1"
   xml:space="preserve"
   inkscape:version="1.4.1 (93de688d07, 2025-03-30)"
   sodipodi:docname="küaplan-icon-draft4.svg"
   inkscape:export-filename="küaplan-icon-draft4.png"
   inkscape:export-xdpi="96"
   inkscape:export-ydpi="96"
   xmlns:inkscape="http://www.inkscape.org/namespaces/inkscape"
   xmlns:sodipodi="http://sodipodi.sourceforge.net/DTD/sodipodi-0.dtd"
   xmlns="http://www.w3.org/2000/svg"
   xmlns:svg="http://www.w3.org/2000/svg"><sodipodi:namedview
     id="namedview1"
     pagecolor="#ffffff"
     bordercolor="#111111"
     borderopacity="1"
     inkscape:showpageshadow="0"
     inkscape:pageopacity="0"
     inkscape:pagecheckerboard="true"
     inkscape:deskcolor="#d1d1d1"
     inkscape:document-units="mm"
     showgrid="true"
     inkscape:zoom="30.043845"
     inkscape:cx="0.78219015"
     inkscape:cy="3.6446733"
     inkscape:window-width="1920"
     inkscape:window-height="1140"
     inkscape:window-x="0"
     inkscape:window-y="0"
     inkscape:window-maximized="1"
     inkscape:current-layer="layer1"
     showborder="true"><inkscape:grid
       id="grid1"
       units="px"
       originx="0"
       originy="0"
       spacingx="0.13229166"
       spacingy="0.13229166"
       empcolor="#0099e5"
       empopacity="0.30196078"
       color="#0099e5"
       opacity="0.14901961"
       empspacing="2"
       enabled="true"
       visible="true" /></sodipodi:namedview><defs
     id="defs1"><filter
       id="filter5099"
       x="-0.046949923"
       y="-0.12784517"
       width="1.0938998"
       height="1.2556903"
       color-interpolation-filters="sRGB"><feGaussianBlur
         stdDeviation="225.0075"
         id="feGaussianBlur1" /></filter><filter
       id="filter2"
       x="-0.046949923"
       y="-0.12784517"
       width="1.0938998"
       height="1.2556903"
       color-interpolation-filters="sRGB"><feGaussianBlur
         stdDeviation="225.0075"
         id="feGaussianBlur2" /></filter><filter
       id="filter3"
       x="-0.046949923"
       y="-0.12784517"
       width="1.0938998"
       height="1.2556903"
       color-interpolation-filters="sRGB"><feGaussianBlur
         stdDeviation="225.0075"
         id="feGaussianBlur3" /></filter><filter
       inkscape:collect="always"
       style="color-interpolation-filters:sRGB"
       id="filter6"
       x="-0.060471955"
       y="-0.073910168"
       width="1.1209439"
       height="1.1478203"><feGaussianBlur
         inkscape:collect="always"
         stdDeviation="0.073332744"
         id="feGaussianBlur6" /></filter></defs><g
     inkscape:label="Layer 1"
     inkscape:groupmode="layer"
     id="layer1"><rect
       style="fill:#b3b3b3;stroke:#b3b3b3;stroke-width:0.264583;stroke-opacity:1;-inkscape-stroke:none"
       id="rect17"
       width="8.3616264e-08"
       height="4.4297472e-08"
       x="4.3656254"
       y="3.8364582"
       ry="2.2148736e-08" /><g
       id="g4"
       transform="rotate(-7.9190844,-10.536123,1.9538909)"><path
         class="fil0"
         transform="matrix(3.181743e-4,0,0,3.666024e-4,0.12203655,1.2020812)"
         d="m -863.5,7837 1293,4224 11328,-1150 c -5347,-538 -9359,-1646 -12621,-3074 z"
         color="#000000"
         color-rendering="auto"
         fill="#1a1a1a"
         filter="url(#filter5099)"
         image-rendering="auto"
         opacity="0.659"
         shape-rendering="auto"
         solid-color="#000000"
         style="isolation:auto;mix-blend-mode:normal"
         id="path1" /><path
         class="fil0"
         d="M -0.15265393,4.075022 0.2588515,5.6233062 3.8612916,5.2017134 C 2.1601197,5.0044813 0.88353371,4.5984488 -0.15477509,4.0746147 Z"
         fill="#dededd"
         fill-rule="evenodd"
         image-rendering="optimizeQuality"
         shape-rendering="geometricPrecision"
         stroke-width="0.000341531"
         id="path2" /></g><g
       id="g3"
       transform="rotate(-4.9023027,-19.678096,0.6875556)"><path
         class="fil1"
         transform="matrix(3.181743e-4,0,0,3.666024e-4,0.12203655,1.2020812)"
         d="m -354.5,7213 649,4273 11459,-577 c -5245,-805 -9074,-2110 -12108,-3696 z"
         color="#000000"
         color-rendering="auto"
         fill="#1a1a1a"
         filter="url(#filter5099)"
         image-rendering="auto"
         opacity="0.659"
         shape-rendering="auto"
         solid-color="#000000"
         style="isolation:auto;mix-blend-mode:normal"
         id="path3" /><path
         class="fil1"
         d="M 0.00926143,3.8460992 0.21575656,5.4127135 3.8606199,5.2011839 C 2.1919725,4.9060689 0.97371844,4.4276528 0.00717563,3.8463843 Z"
         fill="#aaa9a9"
         fill-rule="evenodd"
         image-rendering="optimizeQuality"
         shape-rendering="geometricPrecision"
         stroke-width="0.000341531"
         id="path4" /></g><g
       id="g2"
       transform="translate(0.32726836,-2.0252471)"><path
         class="fil2"
         transform="matrix(3.181743e-4,0,0,3.666024e-4,0.12203655,1.2020812)"
         d="M 2904,8062 C 2518,7879 2147,7692 1788,7502 L 875,6994 C 663,6870 454,6744 251,6618 v 4288 H 11753 C 8585,10246 5991,9420 3813,8475 Z"
         color="#000000"
         color-rendering="auto"
         fill="#1a1a1a"
         filter="url(#filter5099)"
         image-rendering="auto"
         opacity="0.659"
         shape-rendering="auto"
         solid-color="#000000"
         style="isolation:auto;mix-blend-mode:normal"
         id="path5" /><path
         class="fil2"
         d="M 1.0458026,4.1573039 C 0.92298732,4.0902157 0.80494465,4.021661 0.69086149,3.9520066 L 0.40036836,3.7657725 C 0.3329154,3.7203138 0.26641697,3.6741219 0.20182759,3.62793 V 5.1998397 H 3.860832 C 2.8529266,4.9578821 2.027441,4.6552314 1.3345281,4.3085885 Z"
         fill="#1f1a17"
         fill-rule="evenodd"
         image-rendering="optimizeQuality"
         shape-rendering="geometricPrecision"
         stroke-width="0.000341531"
         id="path6-1" /></g><rect
       style="fill:#999999;fill-opacity:0.537109;stroke:#b3b3b3;stroke-width:0;stroke-dasharray:none;stroke-opacity:1;filter:url(#filter6)"
       id="rect6"
       width="2.9104166"
       height="2.3812499"
       x="1.0583333"
       y="0.26458332"
       ry="0.52916664" /><rect
       style="fill:#ffffff;fill-opacity:0.537109;stroke:#b3b3b3;stroke-width:0;stroke-dasharray:none;stroke-opacity:1"
       id="rect20"
       width="2.9104166"
       height="2.3812499"
       x="1.0583333"
       y="0.26458332"
       ry="0.52916664" /><rect
       style="fill:#628eff;fill-opacity:1;stroke:#b3b3b3;stroke-width:0;stroke-dasharray:none;stroke-opacity:1"
       id="rect27"
       width="0.79374999"
       height="0.66145837"
       x="2.1166666"
       y="1.0583333"
       ry="0" /><rect
       style="fill:#628eff;fill-opacity:1;stroke:#b3b3b3;stroke-width:0;stroke-dasharray:none;stroke-opacity:1"
       id="rect34"
       width="0.79374999"
       height="0.39687502"
       x="3.175"
       y="1.7197915"
       ry="0" /><rect
       style="fill:#628eff;fill-opacity:1;stroke:#b3b3b3;stroke-width:0;stroke-dasharray:none;stroke-opacity:1"
       id="rect38"
       width="0.79375005"
       height="0.66145837"
       x="2.1166666"
       y="1.9843749"
       ry="0" /><path
       id="rect43"
       style="fill:#0048ff;fill-opacity:1;stroke:#b3b3b3;stroke-width:0;stroke-dasharray:none;stroke-opacity:1"
       d="m 1.5874999,0.26458333 c -0.2931583,0 -0.5291667,0.23600835 -0.5291667,0.52916663 v 0.1322917 h 2.9104167 v -0.1322917 c 0,-0.29315828 -0.2360083,-0.52916663 -0.5291667,-0.52916663 z" /><rect
       style="fill:#b3b3b3;fill-opacity:1;stroke:#b3b3b3;stroke-width:0;stroke-dasharray:none;stroke-opacity:1"
       id="rect44"
       width="0.26458335"
       height="0.39687493"
       x="1.5874999"
       y="0.13229163"
       ry="0" /><rect
       style="fill:#b3b3b3;fill-opacity:1;stroke:#b3b3b3;stroke-width:0;stroke-dasharray:none;stroke-opacity:1"
       id="rect45"
       width="0.26458335"
       height="0.39687493"
       x="3.1749997"
       y="0.13229163"
       ry="0" /><rect
       style="fill:#85878d;fill-opacity:1;stroke:#b3b3b3;stroke-width:0;stroke-dasharray:none;stroke-opacity:1"
       id="rect48"
       width="0.79374987"
       height="0.79374993"
       x="1.0583333"
       y="1.0583333"
       ry="0" /><path
       id="rect49"
       style="fill:#85878d;fill-opacity:1;stroke:#b3b3b3;stroke-width:0;stroke-dasharray:none;stroke-opacity:1"
       d="m 1.0666016,2.2489582 c 0.058455,0.2287308 0.2651848,0.396875 0.5126302,0.396875 h 0.2645833 v -0.396875 z" /><rect
       style="fill:#85878d;fill-opacity:1;stroke:#b3b3b3;stroke-width:0;stroke-dasharray:none;stroke-opacity:1"
       id="rect5"
       width="0.79374999"
       height="0.39687496"
       x="3.175"
       y="1.190625"
       ry="0" /><path
       id="rect7"
       style="fill:#628eff;fill-opacity:1;stroke:#b3b3b3;stroke-width:0;stroke-dasharray:none;stroke-opacity:1"
       d="M 3.175 2.38125 L 3.175 2.6458333 L 3.4395833 2.6458333 C 3.636225 2.6458333 3.8072351 2.5396457 3.8984701 2.38125 L 3.175 2.38125 z " /></g></svg>
